# xmcd
#
# Track frame offsets:
#	150
#	16917
#	31520
#	46307
#
# Disc length: 825 seconds
#
# Revision: 1
# Processed by: cddbd v1.5.1PL2 Copyright (c) Steve Scherf et al.
# Submitted via: dBpowerAMP V4.0
#
DISCID=1f033704
DTITLE=Janis Leigh - Janis Leigh
DYEAR=1900
DGENRE=Country
TTITLE0=Til I love with you
TTITLE1=I only want to be with you
TTITLE2=The hard times make the good times even better
TTITLE3=The last thing on my mind
EXTD=
EXTT0=
EXTT1=
EXTT2=
EXTT3=
PLAYORDER=
